# xmcd
#
# Track frame offsets:
#	150
#	15088
#	32100
#	45943
#	59038
#	72858
#	83955
#	98935
#	112705
#	126605
#	141088
#	150528
#	163155
#	176763
#	189575
#	214868
#	227295
#	240860
#	252620
#	266790
#
# Disc length: 3706
#
# Revision: 3
# Processed by: cddbd v1.5.1PL0 Copyright (c) Steve Scherf et al.
# Submitted via: CDex 1.30Release
# Normalized: r1:DSETVAR1,TDELIM( - ),TSWAP
#
DISCID=100e7814
DTITLE=Various Artist - The Greatest In Country Blues (1929 - 1956) Vol 3
DYEAR=1992
DGENRE=Blues
TTITLE0=Smith Casey - Shorty George
TTITLE1=Bozie Sturivant - Ain't No Grame Can Hold My Body Down
TTITLE2=Muddy Waters - I Be's Troubled
TTITLE3=Big Bill Broonzy - How You Want It Down?
TTITLE4=Georgia Cotton Pickers - She's Comming Back Some Cold Rainy Day
TTITLE5=Bukka White - Sic 'Em Dogs On
TTITLE6=Lane Hardin - California Desert Blues
TTITLE7=Jesse James - Lonesome Day Blues
TTITLE8=Allen Shaw - Moanin' The Blues
TTITLE9=Leroy Carr - Midnight Hour Blues
TTITLE10=Pete Harris - Jack ODiamonds
TTITLE11=Elmore James - Dust My Broom
TTITLE12=Kid Bailey - Rowdy Bluyes
TTITLE13=Baby Face Leroy - Rollin' And Tumblin' Pt.1
TTITLE14=Smokey Hogg - Penitentiary Blues Pt.1 and 2
TTITLE15=Dan Pickett - Baby How Long
TTITLE16=Sonny Boy Williamson - Mighty Long Time
TTITLE17=Lowell Fuson - River Blues Pt.2
TTITLE18=Howlin' Wolf - Smokestack Lightnin'
TTITLE19=Lighnin' Hopkins - Moanin' Blues
EXTD=YEAR: 1992 ID3G:   0
EXTT0=
EXTT1=
EXTT2=
EXTT3=
EXTT4=
EXTT5=
EXTT6=
EXTT7=
EXTT8=
EXTT9=
EXTT10=
EXTT11=
EXTT12=
EXTT13=
EXTT14=
EXTT15=
EXTT16=
EXTT17=
EXTT18=
EXTT19=
PLAYORDER=
